<?xml version="1.0" encoding="UTF-8"?>
<svg id="Layer_1" xmlns="http://www.w3.org/2000/svg" version="1.1" viewBox="0 0 240.3 201.09">
  <!-- Generator: Adobe Illustrator 29.8.1, SVG Export Plug-In . SVG Version: 2.1.1 Build 2)  -->
  <defs>
    <style>
      .st0 {
        fill: none;
      }

      .st1 {
        fill-rule: evenodd;
      }

      .st1, .st2 {
        fill: #fff;
      }

      .st3 {
        fill: #231f20;
      }

      .st4 {
        fill: #f37737;
      }
    </style>
  </defs>
  <g>
    <path class="st2" d="M148.45,0c-21.63,0-40.33,6.82-54.06,19.72l-3.06,2.87,2.5.95c-2.94,2.84-5.43,6.02-6.57,7.53-3.68.67-13.47,2.69-18.52,7.07-2.06,1.78-3.24,3.66-3.24,3.66l4.28,1.06s.47.12,1.12.29c.41.11.72.5.76.96.53,5.81,2.03,10.11,4.49,12.84-6.98,15.61-10.62,24.69-17.04,40.71l-2.38,5.93,4.61-2c-2.9,7.5-6.28,16.32-9.47,24.8l-1.86-2.44c-2.18-2.87-3.5-5.78-4.27-7.93l3.82-.37-1.86-3.48c-4.07-7.6-6.63-17.01-6.65-17.1l-2.1-7.82-2.88,7.57c-.04.11-4.06,10.62-7.54,16.81l-2.14,3.81,4.05.1c-.21.54-.44,1.15-.68,1.79-1.04,2.75-2.32,6.16-3.39,8.4l-1.74,3.65,4.05.1s.04,0,.12,0c-1.87,3.88-5.31,9.2-7.28,12.25l-.59.92-2.67,4.15,4.94-.11s.29,0,.68-.03c-1.65,4.65-5.99,14.03-15.91,21.7l-7.96,6.16,9.96-1.49c4-.6,8.24-.9,12.57-.9,21.85,0,44.75,7.56,66.91,14.88,18.98,6.27,36.91,12.19,54.03,13.59,4.13.34,8.33.51,12.46.51,16.36,0,32.53-2.63,48.06-7.83,15.52-5.19,26.7-11.71,33.34-16.25l2.98-2.04-2.86-2.2c-6.85-5.29-11.06-10.89-13.39-14.66-.72-1.16-1.31-2.23-1.78-3.16.43.03.74.04.83.04l5.25.23-2.96-4.33c-4.06-5.94-7.19-13.12-8.9-17.47.13,0,.24.01.3.02l5.62.31-3.38-4.5c-2.31-3.08-4.24-6.62-5.52-9.22l3.72-.14-2.47-3.86c-4.32-6.76-7.18-14.86-7.21-14.94l-2.35-6.71-2.58,6.62c-.04.09-3.69,9.46-6.95,15.23l-2.08,3.68,3.8.21c-.09.22-.18.45-.27.69-.98,2.49-2.45,6.26-4.02,7.97l-1.66,1.81-.27-.47c-6.03-11.06-6.99-19.16-3.12-26.21,1.49-2.71,5.05-5.74,8.83-8.95,2.55-2.17,5.19-4.41,7.67-6.92,4.67-4.72,9.81-10.43,12.73-17.13,9.48-8.82,11.21-18.41,10.97-24.95-.16-4.54-1.32-9.15-3.33-13.34-1.64-3.4-3.55-6.43-5.99-8.69-3.02-3.25-6.88-4.17-11.59-4.54-1.21-.98-2.95-2.32-3.7-2.89-9-6.75-15.82-10.52-30.27-13.66C164.85.94,156.45,0,148.45,0h0Z"/>
    <path class="st3" d="M218.11,151.87h0c1.7.35,5.12.5,5.12.5-6.57-9.6-10.68-22.07-10.68-22.07,1.3.35,4.39.52,4.39.52-4.53-6.03-7.56-13.58-7.56-13.58,1.32.26,3.19.19,3.19.19-4.55-7.11-7.47-15.49-7.47-15.49,0,0-3.72,9.56-7.11,15.57,0,0,3.75.21,6.93-.79,0,0-2.35,1.97-4.32,2.62-1.02,2.11-2.94,8.38-5.53,11.2,0,0,3.94,0,7.65-1.69,0,0-2.68,2.58-4.75,3.71-.35,2.05-1.59,5.74-2.92,8.79-2.03-2.91-3.9-5.97-5.72-9.23h0c-5.3-9.47-8.84-19.82-3.54-29.49,2.77-5.06,10.62-10.07,16.94-16.45,5.19-5.24,9.82-10.61,12.4-16.84,18.34-16.61,8.64-37.88,1.82-43.21-1.55-2.81-4.98-3.83-10.59-4.21-1.02-.85-3.31-2.64-4.26-3.35-9.23-6.93-15.88-10.29-29.25-13.19-31.76-6.9-58.79-.52-76.67,16.26,1.45.55,3.15.71,3.15.71-5.27,3.64-10.6,11.14-10.6,11.14,0,0-14.18,2.27-18.34,6.83,0,0,.49.12,1.17.3,1.47.4,2.55,1.7,2.69,3.26.27,3.02,1.15,9.57,5.04,12.42-7.38,16.42-10.95,25.3-17.77,42.33,0,0,2.15-.94,4.3-1.43-5.46,14.1-11.3,29.36-15.69,41.26-3.94-6.85-6.12-13.27-6.12-13.27,1.16.32,3.89.34,3.89.34-4.7-6.17-5.72-12.46-5.72-12.46.97.54,3.18.33,3.18.33-4.27-7.97-6.87-17.66-6.87-17.66,0,0-4.09,10.73-7.71,17.16,0,0,4.72.1,8.27-1.39,0,0-3.38,2.63-5.6,3.43-.95,2.3-3.09,8.41-4.75,11.9,0,0,4.72.1,8.27-1.39,0,0-2.79,2.18-4.97,3.16-1.72,4.45-6.6,11.87-8.9,15.44,0,0,5.61-.13,9.16-1.62,0,0-3.47,2.79-5.53,3.86-1.35,4.25-5.68,15.23-17.19,24.13,44.3-6.63,93.03,24.17,134.11,27.55,41.08,3.38,74.31-10.9,92.16-23.12-14.04-10.83-17.74-22.97-17.74-22.97Z"/>
  </g>
  <path class="st4" d="M144.94,173.42c10.44-2.61,16.88-6,21.88-10.73.65,2.21-1.08,7.19-1.08,7.19,5.37-3.2,9.43-9.71,11.97-16.06,1.13.84,2.59,5.36,2.59,5.36,3.78-7.02,3.22-15.83.2-22.15-7.74-16.21-8.24-27.31-8.42-32.53-3.89,3.42-5.89,8.46-5.89,8.46-.97-2.02-1.72-7.15-1.72-7.15-2.19,2.89-4.44,8.86-4.44,8.86-1.15-1.95-2-7.68-2-7.68-4.25,4.23-5.46,13.07-5.46,13.07-3.78-12.01-19.79-22.23-19.79-22.23,6.87,2.35,16.94,2.75,16.94,2.75-4.74-2.19-6.93-4.89-6.93-4.89,16.06,1.35,29.46-.77,39.3-7.83-1.39,4.03-4.69,7.86-4.82,8.02,8.91-3.37,19.19-14.27,21.16-17.12,0,0-.22,3.09-1.06,5.72,2.92-2.48,8.58-9.6,10.37-12.28,2.82-4.23,7.77-12.01.42-14.06-5.15-1.43-9.73.62-15.46,2.77-3.25,1.22-8.25,3.9-12.72,3.81-7.5,4.66-13.86,8.92-19.4,8.73,2-1.1,3.23-3.03,3.23-3.03,0,0-6.2.53-11.85-1.8-2.08-.86-3.92-2.02-5.5-3.37-6.72,1.38-15.52,5.11-15.52,5.11,6.41-4.72,11.23-6.5,13.46-7.14-1.89-2.15-3.24-4.61-4.01-7.11-6.15,1.08-12.77,3.04-12.77,3.04,5.45-3.55,9.66-4.89,12.21-5.4-.38-2.36-.22-4.68.5-6.73-6.2.49-12.72,1.63-12.72,1.63h0c5.83-3.02,10.99-4.18,14.16-4.61,1.53-2.6,4.02-5.69,7.63-8.52-2.97-1.86-4.07-4.68-7.05-6.39,5.69,2.15,7.81,7.18,17.38,2.73,4.78-2.22,7.14-4.19,14.22-4.9,1.97-.11,3.99-.12,6.17-.02,0,0,0,0,0,0-3.09-3.2-8.78-8.11-16.68-10.91,10.04.99,22.35,6.18,22.35,6.18-2.27-3.29-7.21-6.68-7.21-6.68,6.48,1.32,13.47,5.41,13.47,5.41-2.9-4.13-7.27-6.72-7.27-6.72-2.78-1.27-4.98-1.94-7.72-2.72-23.32-6.6-48-5.6-70.8,7.57,0,0,2,0,3.96.38-5.17,3.26-10.14,8.67-13.47,12.45-1.79,2.04-.86,3.41-.12,3.96.82.62,1.51,1.31,1.5,1.59-2.01-.17-5.32-.17-8.77.07-5.07.35-10.47,1.23-12.56,2.87,0,0,2.42.27,3.49.94l-2.55.82s.5,6.23,5.51,10.68c1.87,1.66,4.66,1.61,6.52-.1,1.2-1.11,2.57-2.61,3.53-3.83.49-.61.7.26.53,1.03-1.57,7.14-.29,14.25,3.61,19.17-.14-3.42-.01-5.38.4-7.39,0,0,4.59,16.3,21.05,26.9-4.54-.05-15.91-5.63-15.91-5.63,1,2.88,3.65,5.32,3.65,5.32-3.08-.55-9.39-.55-15.17,3.32-8.55,6.55-11.26,20.62-1.89,37.86,0,0-4.73-1.48-9.22-6.07,2.38,14.24,12.44,29,26.46,39.6-.31-.14-20.53-9.05-47.4-8.58,0,0,15.67,3.77,23.58,9.42,0,0-11.14-.95-20.14.7,13.75,3.28,19.43,5.08,45.56,13.88,39.65,13.36,79.56,9.83,102.25-4.84-22.34,4.21-44.28,4.26-65.74-.18Z"/>
  <path class="st1" d="M116.76,17.59c16.28-7.76,36.67-7.47,44.34-5.87-20.8,0-30.54,4.19-30.56,4.2,2.21.15,5.01,1.18,5.02,1.18-10.49,2.67-16.1,4.73-24.37,9.16,3.8-3.66,9.08-6.91,13.15-9.13-4.89.16-7.55.46-7.58.46Z"/>
  <path class="st2" d="M206.73,46.29c-.3-2.99-.29-4.22-2.79-6.44-2.56-2.27-9.36-3.24-13.65-5.99-2.17-1.39-2.86-3.18-2.61-4.9,0,0,0,0,0,0,.06-.44.19-.88.37-1.3,0-.01,0-.02.01-.03.06-.13.12-.26.18-.38,0-.02.02-.04.03-.05.06-.12.13-.24.2-.36.01-.02.03-.04.04-.07.92-1.47,2.48-2.68,4.2-3.22,1.39-.44,3.23-.78,5.23-1.07-4-3.5-9.04-6.66-13.16-8.28,0,0,4.37,2.59,7.27,6.72,0,0-6.99-4.09-13.47-5.41,0,0,4.94,3.39,7.21,6.68,0,0-12.31-5.19-22.35-6.18,7.9,2.79,13.59,7.71,16.68,10.91,0,0,0,0,0,0-2.17-.1-4.19-.09-6.17.02-7.08.72-9.45,2.69-14.22,4.9-9.57,4.45-11.7-.59-17.38-2.73,2.98,1.71,4.08,4.53,7.05,6.39-3.61,2.83-6.1,5.91-7.63,8.52-3.18.44-8.34,1.59-14.16,4.61h0s6.52-1.14,12.72-1.63c-.72,2.06-.88,4.38-.5,6.73-2.55.51-6.77,1.85-12.21,5.4,0,0,6.61-1.96,12.77-3.04.77,2.5,2.12,4.96,4.01,7.11-2.23.64-7.05,2.42-13.46,7.14,0,0,8.8-3.73,15.52-5.11,1.58,1.35,3.42,2.51,5.5,3.37,5.65,2.34,11.85,1.8,11.85,1.8,0,0-1.24,1.92-3.23,3.03,10,.33,22.71-13.81,39.89-18.71,2.57-.73,6.73-3.71,6.26-8.45Z"/>
  <path class="st2" d="M216.16,31.57c-1.1,3.57-3.4,5.06-4.93,7.58-.94,1.55-1.84,3.67-1.76,5.64.11,2.61.29,4.75.64,6.03.56,2.05,1.83,3.73,3.71,5.79,1.64,1.79,1.92,5.69,1.92,5.69,1.92-2.01,3.71-7.08,3.45-9.89.67.86,1.15,2.66,1.15,2.66,3.22-7.14.45-19.25-4.18-23.49Z"/>
  <polygon class="st2" points="163.46 16.02 163.46 16.02 163.45 16.01 163.46 16.02"/>
  <path class="st3" d="M90.21,47.8c1.18-1.18,4.29-5.25,1.01-5.55-2.58-.23-7.18,0-9.37,1.37-.28.17-.33.56-.08.59,2.28.23,2.35.21,3.02.34,1.3.26.89,1.07-.55,1.73-.42.19-.36.6-.13.64,1.47.2,2.78-.45,3.44-.31.31.07.61,1.28-1.07,1.89-1.46.52,1.35,1.66,3.72-.7Z"/>
  <path class="st3" d="M155.33,43.44c-21.22.03-36.33,8.88-40.58,11.68-.13.09-.24-.18-.12-.3,10.56-10.45,28.75-13.87,36.26-14.26,4.27-.22,6.15,1.05,5.63,2.81l-1.2.07Z"/>
  <path class="st3" d="M114.5,68.38c-.12.11-.26-.14-.15-.28,9.25-12.12,26.03-17.63,33.46-19.32,4.22-.96,6.25-.03,5.94,1.78l-1.18.28c-21.11,3.71-34.17,14.04-38.06,17.53"/>
  <path class="st3" d="M152.33,60.73c-15.79,4.43-26.48,12.88-30.37,16.39-.12.11-.26-.14-.16-.27,7.88-10.15,18.78-15.28,25.55-17.35,4.17-1.28,6.35-.96,6.25.88l-1.27.36Z"/>
  <g>
    <path class="st0" d="M159.75,31.85c4.78-2.22,7.14-4.19,14.22-4.9-.02,0-.03,0-.05,0-7.08.72-9.4,2.68-14.18,4.9Z"/>
    <path class="st3" d="M159.75,31.85c4.78-2.22,7.09-4.18,14.18-4.9.02,0,.03,0,.05,0,0,0-3.95-2.53-5.84-3.59-7.72-4.31-14.84-6.18-24.54-3.97-2.18.61,4.94,1.74,1.48,2.89-5.12,1.7-9.25,4.36-11.12,5.69-.26.19-.09.61.22.56,3.57-.59,6.12-.19,8.2.59,5.69,2.15,7.81,7.18,17.38,2.73Z"/>
  </g>
  <path class="st2" d="M154.38,23.97c-.03-1.05.89-1.86,2.07-1.81,1.18.05,2.16.94,2.2,1.98.03,1.05-1.06,1.62-2.24,1.57-1.18-.05-2-.7-2.03-1.74Z"/>
  <path class="st2" d="M198.58,25.01c4.88-.72,14-.86,15.36,1.2.78,1.18.02,3.32-.61,3.89,0,0,.89-3.39-2.53-3.8-3.42-.41-17.89-.4-12.21-1.29Z"/>
  <path class="st4" d="M73.53,107.91c.99,2.63,3.38,5.63,5.44,8.28,0,0-4.67-14.49.78-36.76,0,0-4,7.41-7.11,17.71-3.25,10.76-3.54,24.55,3.97,36.56,0,0-4.87-14.73-3.08-25.78h0Z"/>
  <path class="st4" d="M64.54,120.23s-7.86,23.33,16.77,30.26c0,0-16.39-8.75-16.77-30.26Z"/>
  <path class="st2" d="M171.93,87.19s10.81-4.73,19.32-12.34c0,0-.56,4.49-2.41,7.33,0,0,9.16-6.61,14.34-15.05,0,0-.27,4.81-.88,7.08,0,0,5.93-7.15,4.59-11.26-.85-2.62-4.45-.87-6.59.08-4.86,2.17-13.45,9.19-23.47,13.45,0,0,5.68-.58,9.72-2.08,0,0-5.46,6.06-14.61,12.79h0Z"/>
  <path class="st2" d="M157.17,116.29s1.05,6.74,4.63,10.04c0,0-.88-6.21,1.55-11.35,0,0,.67,3.86,3.35,8.17,0,0,.02-4.17,3-9.6,2.7,20.08,10.91,24.3,10.28,37.33,0,0-2.98-9.63-6.6-12.33,0,0,2.48,12.95-2.76,20.63,0,0,.13-14.35-4.26-20.34,0,0,.05,5.3-5.77,12.61,2.64-14.26-7.08-21.35-3.44-35.17Z"/>
  <path class="st2" d="M89.38,37.52c-6.56,1.54-9.07,3.81-9.07,3.81-1.07-.67-3.49-.94-3.49-.94,2.09-1.64,7.49-2.52,12.56-2.87Z"/>
</svg>